<svg width="453" height="138" viewBox="0 0 453 138" fill="none" xmlns="http://www.w3.org/2000/svg">
<g clip-path="url(#clip0_141_2)">
<path d="M140.246 31.154C138.658 32.742 138.629 38.229 140.2 39.8C140.86 40.46 142.896 41 144.725 41C148.627 41 150.356 37.991 149.123 33.345C148.502 31.007 147.755 30.447 144.93 30.204C143.039 30.042 140.931 30.469 140.246 31.154Z" fill="white"/>
<path d="M140.667 49.667C140.3 50.033 140 65.55 140 84.148V117.962L142.407 118.566C143.731 118.898 145.756 118.666 146.907 118.05C148.95 116.957 149 116.296 149 90.616C149 76.143 148.709 60.859 148.353 56.651L147.707 49H144.52C142.767 49 141.033 49.3 140.667 49.667Z" fill="white"/>
<path d="M298.265 31.752C298.001 32.441 298.052 34.072 298.379 35.376C298.949 37.645 300.27 38.411 307.5 40.666C310.235 41.519 310.478 41.95 310.253 45.551C310.117 47.723 307.282 63.4 303.954 80.388C297.757 112.016 297.438 116.094 301.016 118.008C303.54 119.359 312.406 119.258 317.193 117.824C322.175 116.331 323.494 114.027 321.984 109.451C320.691 105.534 319.172 105.195 313.514 107.559C311.462 108.416 309.571 108.904 309.31 108.644C308.633 107.966 315.558 67.055 319.117 50.707C320.769 43.12 321.981 35.47 321.81 33.707L321.5 30.5H310.123C301.932 30.5 298.611 30.851 298.265 31.752Z" fill="white"/>
<path d="M403.234 42.113C400.888 43.274 398.1 45.328 397.039 46.677C395.452 48.696 394.758 48.941 393.121 48.065C390.279 46.544 386.312 46.749 383.548 48.56C381.631 49.817 380.79 49.886 379.234 48.914C376.549 47.238 372.117 48.562 371.054 51.358C370.56 52.656 370.534 62.025 370.993 72.84C371.441 83.388 371.654 92.802 371.465 93.759C371.277 94.717 370.879 100.269 370.58 106.098C370.038 116.689 370.039 116.697 372.566 117.848C375.993 119.41 376.681 119.319 379 117C380.903 115.097 381 113.667 381 87.622C381 58.704 381.218 57.317 385.63 58.167C388.598 58.739 389.101 63.741 388.796 89.666C388.633 103.508 388.725 115.032 389 115.276C389.275 115.519 390.705 116.007 392.178 116.36C397.795 117.706 398 116.652 398 86.476C398 59.365 398.484 54.796 401.476 53.648C405.939 51.935 407.15 62.791 405.994 94.161C405.542 106.431 405.385 116.814 405.645 117.235C406.395 118.448 412.477 118.123 413.8 116.8C414.684 115.916 415 107.117 415 83.425C415 65.729 414.72 49.85 414.378 48.139C413.778 45.139 409.938 39.999 408.298 40.001C407.859 40.001 405.58 40.952 403.234 42.113Z" fill="white"/>
<path fill-rule="evenodd" clip-rule="evenodd" d="M438.476 28.197C434.374 33.052 431.33 40.638 428.837 52.223C427.03 60.62 426.619 65.792 426.588 80.5C426.544 101.515 427.915 108.115 433.48 113.68C436.293 116.493 437.514 117 441.477 117C445.313 117 446.679 116.474 449.077 114.077C450.993 112.161 452 110.132 452 108.19C452 105.358 451.751 105.189 446.352 104.364C437.529 103.014 436.722 101.358 436.185 83.512C435.883 73.498 436.103 68.581 436.893 67.629C437.523 66.87 439.717 65.974 441.769 65.637C443.821 65.3 446.921 64.151 448.658 63.083C451.608 61.269 451.862 60.653 452.51 53.733C453.324 45.053 451.707 32.902 449.156 28.514C446.536 24.009 442.125 23.878 438.476 28.197ZM437.649 57C436.418 57 437.748 47.539 439.603 43.099C441.581 38.365 442.964 40.449 442.985 48.193C442.997 52.953 442.636 54.142 440.777 55.443C439.555 56.299 438.147 57 437.649 57Z" fill="white"/>
<path d="M350.08 51.404C349.225 52.434 349.084 59.03 349.551 76.154C350.207 100.231 349.6 107.261 346.822 107.796C343.754 108.387 343 102.521 343 78.051C343 52.802 342.845 51.987 338.05 52.015C337.933 52.0157 337.818 52.0161 337.706 52.0165H337.705C336.443 52.0211 335.493 52.0245 334.792 52.4441C332.651 53.7251 332.833 58.8846 333.568 79.7929L333.634 81.665C334.692 111.806 335.134 114.076 340.646 117.687C343.102 119.297 343.42 119.296 346.261 117.665C348.971 116.11 349.442 116.09 350.965 117.468C352.992 119.302 356.145 119.455 357.8 117.8C359.124 116.476 359.52 73.332 358.346 58.25L357.704 50H354.474C352.698 50 350.721 50.632 350.08 51.404Z" fill="white"/>
<path fill-rule="evenodd" clip-rule="evenodd" d="M227 29.026C226.175 29.573 223.925 29.779 222 29.482C214.465 28.322 198.386 34.774 191.638 41.665C187.378 46.017 182.203 54.13 178.424 62.386C177.01 65.474 175.211 68 174.427 68C172.702 68 172.665 69.673 174.13 81.432C175.931 95.883 183.668 109.214 194.534 116.588C198.466 119.256 199.293 117.797 196 114C192.58 110.057 193.733 108.591 197.669 111.878C198.861 112.874 199.986 114.99 200.169 116.581C200.426 118.83 201.501 120.019 205 121.925C207.475 123.273 209.634 124.695 209.799 125.085C209.963 125.474 212.213 125.247 214.799 124.58C217.723 123.825 220.823 123.673 223 124.178C224.925 124.624 231.8 125.286 238.277 125.649C248.36 126.213 250.23 126.08 251.277 124.725C251.95 123.854 253.625 122.997 255 122.821C256.981 122.567 257.493 121.94 257.465 119.802C257.434 117.448 257.914 117.021 261.227 116.462C265.978 115.659 277.402 107.491 276.621 105.455C276.313 104.652 276.931 103.572 278.037 102.98C279.606 102.14 280 100.873 280 96.665C280 93.769 279.572 90.972 279.048 90.448C278.26 89.66 277.605 72.674 278.087 65.5C278.161 64.4 277.093 60.8 275.713 57.5C270.697 45.502 254.666 33.02 239.759 29.505C232.432 27.778 229.071 27.651 227 29.026ZM248.572 44.569C248.085 46.508 248.481 47.569 250.215 48.973C252.234 50.607 252.541 51.88 252.849 59.911C253.193 68.852 254.33 71.517 255.616 66.395C256.675 62.176 255.244 51.399 253.056 47.109C250.455 42.012 249.368 41.396 248.572 44.569ZM243 85.763C235.675 90.58 234.644 92 238.475 92C241.276 92 250.622 84.152 249.89 82.415C249.676 81.906 246.575 83.412 243 85.763ZM186.154 115.438C186.345 116.355 186.95 117.082 187.5 117.053C188.984 116.974 188.712 114.737 187.154 114.218C186.313 113.938 185.939 114.395 186.154 115.438ZM189.575 117.879C189.265 118.38 189.684 119.048 190.506 119.364C191.328 119.679 192 119.528 192 119.028C192 117.672 190.223 116.83 189.575 117.879ZM260.02 122.696C258.028 125.222 257.98 125.535 259.534 125.848C261.357 126.216 266.251 123.092 266.408 121.461C266.63 119.146 262.133 120.015 260.02 122.696ZM192.91 122.608C191.775 123.976 191.869 124.442 193.538 125.722C199.336 130.171 220.811 137.273 228.5 137.283C235.165 137.293 244.438 135.752 245.5 134.458C246.05 133.788 247.738 132.952 249.25 132.601C250.81 132.238 252 131.283 252 130.393C252 129.14 251.245 128.945 248.25 129.426C226.501 132.915 209.952 131.635 207.926 126.307C207.146 124.254 206.726 124.076 204.927 125.039C203.199 125.964 202.189 125.71 199.114 123.579C194.73 120.541 194.638 120.527 192.91 122.608Z" fill="#F4040C"/>
<path d="M33.472 67.75C34.157 102.144 34.467 105.995 37.007 111.745C39.431 117.23 42.873 118.969 46.544 116.563C48.987 114.962 49.296 114.958 50.996 116.496C52.051 117.451 54.022 118.013 55.662 117.825L58.5 117.5L58.779 82C58.932 62.475 58.807 45.472 58.501 44.215C57.872 41.633 53.7 39.643 50.826 40.555C48.987 41.139 48.94 42.189 49.553 69.331C50.196 97.808 49.643 105.5 46.955 105.5C43.819 105.5 43.114 99.045 43.056 69.807C43 41.32 42.984 41.102 40.777 39.557C39.555 38.701 37.278 38 35.717 38H32.88L33.472 67.75Z" fill="white"/>
<path d="M9.80799 1.93602C8.45399 3.00102 5.81999 6.71402 3.95299 10.186C0.913992 15.841 0.569992 17.282 0.657992 24C0.710992 28.125 1.69099 35.55 2.83499 40.5L3.69615 44.2294L3.70152 44.2526L3.72199 44.3412L3.72462 44.3527L3.74444 44.4385L3.74997 44.4624L3.76485 44.5269L3.76937 44.5464C5.06771 50.169 6.95592 58.346 8.49199 65C12.154 80.862 13.781 95.062 12.631 101.104C12.254 103.083 9.88799 106.949 6.96199 110.367C1.72099 116.488 1.24899 118.965 4.79199 121.75C7.40899 123.807 9.73799 123.195 13.46 119.473C18.194 114.739 20.658 109.627 22.045 101.663C23.544 93.054 22.545 85.69 15.969 56.886C9.11299 26.857 9.13499 22.801 16.202 13.784C19.865 9.11002 20.849 3.99202 18.531 1.67402C16.309 -0.547983 12.834 -0.443984 9.80799 1.93602Z" fill="white"/>
<path d="M76.434 45.25C68.933 54.136 68.253 62.419 73.5 81C77.806 96.249 77.976 102.075 74.352 110.151C72.144 115.071 71.891 116.465 72.83 118.526C75.567 124.534 83.719 118.506 86.062 108.743C87.599 102.334 86.797 95.739 82.474 79.245C80.563 71.955 79 64.509 79 62.699C79 60.655 80.317 57.34 82.474 53.954C86.448 47.716 86.735 45.975 84.171 43.655C81.471 41.212 79.5 41.618 76.434 45.25Z" fill="white"/>
<path d="M100.397 23.739C99.638 24.263 99.078 38.892 98.598 70.719L97.902 116.937L100.525 117.596C101.967 117.958 104.239 117.756 105.574 117.148L108 116.043V88.956C108 72.196 108.395 61.131 109.035 59.934C110.421 57.346 113.526 57.485 115.443 60.223C116.759 62.102 117 66.641 117 89.6C117 119.576 117.163 120.385 122.81 118.397L125.5 117.45V85.975C125.5 57.96 125.309 54.151 123.761 51.321C121.533 47.248 119.477 46.651 113.686 48.394L109 49.804L108.942 40.652C108.911 35.618 108.568 29.7 108.181 27.5C107.559 23.968 107.127 23.469 104.489 23.239C102.845 23.096 101.004 23.321 100.397 23.739Z" fill="white"/>
</g>
<defs>
<clipPath id="clip0_141_2">
<rect width="453" height="138" fill="white"/>
</clipPath>
</defs>
</svg>
